# xmcd
#
# Track frame offsets:
#	183
#	23883
#	38733
#	53995
#	84183
#	95308
#	117333
#	134608
#	158595
#
# Disc length: 2354 seconds
#
# Revision: 6
# Processed by: cddbd v1.5PL3 Copyright (c) Steve Scherf et al.
# Submitted via: CDmax 2.0
#
DISCID=68093009
DTITLE=Peps Blodsband - Hög standard
DYEAR=1975
DGENRE=Blues
TTITLE0=Hög standard
TTITLE1=Persson ifrån stan
TTITLE2=Upp eller ner
TTITLE3=Styr den opp
TTITLE4=Djupet i mitt hjärta
TTITLE5=Den grundlurade generationen
TTITLE6=En och tjugofem
TTITLE7=Snackelåt
TTITLE8=Kommunikationskollaps
EXTD=Peps Persson: sång, gitarr, munspel, perkussion, bakgrundssång\nBrynn Se
EXTD=ttels: orgel, piano, elpiano, clavinet, marimba, stråkmaskin, perkussion
EXTD=, bakgrundssång\nRolf Alm: elbas, dragspel, sång på "En Och Tjugofem", p
EXTD=erkussion, \tbakgrundssång\n\nGästande vänner:\nBosse Skoglund: trummor
EXTD=, sandpapper, perkussion, bakgrundssång\nRoland Keijser: tenorsax, klari
EXTD=nett, perkussion\nTorsten Eckerman: trumpet, perkussion\nGöran Weihs: pe
EXTD=rkussion, bakgrundssång\n\nPå "Upp Och Ner" är alla tre stämmorna av Pep
EXTD=s\n\nProducerad av Sam Charters
EXTT0=(Per-Åke Persson)
EXTT1=(Anton Persson)
EXTT2=(Per-Åke Persson)
EXTT3=(Bob Marley/Per-Åke Persson)
EXTT4=(Per-Åke Persson)
EXTT5=(Per-Åke Persson)
EXTT6=(Rolf Alm)
EXTT7=(C. Barrett/L. Coghill/Per-Åke Persson)
EXTT8=(Per-Åke Persson)
PLAYORDER=
